<?xml version="1.0" encoding="utf-8"?>
<svg viewBox="0 0 256.633 55" xmlns="http://www.w3.org/2000/svg" xmlns:bx="https://boxy-svg.com">
  <defs>
    <style bx:fonts="Braah One">@import url(https://fonts.googleapis.com/css2?family=Braah+One%3Aital%2Cwght%400%2C400&amp;display=swap);</style>
  </defs>
  <g id="_029-blend" data-name="029-blend" transform="matrix(1, 0, 0, 1, 1.7763568394002505e-15, 0)">
    <path id="Path_78" data-name="Path 78" d="M25.58,27.609H1.705A1.716,1.716,0,0,1,0,25.883V1.725A1.716,1.716,0,0,1,1.705,0H25.58a1.716,1.716,0,0,1,1.705,1.725V25.883A1.716,1.716,0,0,1,25.58,27.609Zm0,0" transform="translate(0)" fill="#0051bd"/>
    <path id="Path_79" data-name="Path 79" d="M153.947,155.781H137.834A4.84,4.84,0,0,1,133,150.947V134.834A4.84,4.84,0,0,1,137.834,130h16.113a4.84,4.84,0,0,1,4.834,4.834v16.113A4.84,4.84,0,0,1,153.947,155.781Zm0,0" transform="translate(-118.713 -116.035)" fill="#00eccf"/>
    <path id="Path_80" data-name="Path 80" d="M261.949,130H254v25.781h7.949a4.84,4.84,0,0,0,4.834-4.834V134.834A4.84,4.84,0,0,0,261.949,130Zm0,0" transform="translate(-226.715 -116.035)" fill="#00cab1"/>
    <path id="Path_81" data-name="Path 81" d="M284.891,297.781a12.891,12.891,0,1,1,12.891-12.891A12.905,12.905,0,0,1,284.891,297.781Zm0,0" transform="translate(-242.781 -242.781)" fill="#d11372"/>
  </g>
  <text style="fill: rgb(24, 31, 72); font-family: 'Braah One'; font-size: 40px; font-weight: 700; white-space: pre;" x="59.749" y="40.165" transform="matrix(1, 0, 0, 1, 1.7763568394002505e-15, 0)">NSTILeave</text>
</svg>